<?xml version="1.0" encoding="UTF-8" standalone="no"?>
<!-- Created with Inkscape (http://www.inkscape.org/) -->

<svg
   xmlns:osb="http://www.openswatchbook.org/uri/2009/osb"
   xmlns:dc="http://purl.org/dc/elements/1.1/"
   xmlns:cc="http://creativecommons.org/ns#"
   xmlns:rdf="http://www.w3.org/1999/02/22-rdf-syntax-ns#"
   xmlns:svg="http://www.w3.org/2000/svg"
   xmlns="http://www.w3.org/2000/svg"
   xmlns:sodipodi="http://sodipodi.sourceforge.net/DTD/sodipodi-0.dtd"
   xmlns:inkscape="http://www.inkscape.org/namespaces/inkscape"
   width="64"
   height="64"
   id="svg2"
   version="1.1"
   inkscape:version="0.48.1 r9760"
   sodipodi:docname="hi64-avrtuner-icon.svg"
   inkscape:export-filename="/home/allis/Workspace/Programming/AVRecord2-trunk/src/avrtuner/hi16-avrtuner-icon.png"
   inkscape:export-xdpi="22.5"
   inkscape:export-ydpi="22.5">
  <defs
     id="defs4">
    <linearGradient
       id="linearGradient5267"
       osb:paint="solid">
      <stop
         style="stop-color:#1a1a1a;stop-opacity:1;"
         offset="0"
         id="stop5269" />
    </linearGradient>
  </defs>
  <sodipodi:namedview
     id="base"
     pagecolor="#ffffff"
     bordercolor="#666666"
     borderopacity="1.0"
     inkscape:pageopacity="0.0"
     inkscape:pageshadow="2"
     inkscape:zoom="2"
     inkscape:cx="31.573585"
     inkscape:cy="32.131315"
     inkscape:document-units="px"
     inkscape:current-layer="layer1"
     showgrid="true"
     inkscape:window-width="1254"
     inkscape:window-height="999"
     inkscape:window-x="3"
     inkscape:window-y="25"
     inkscape:window-maximized="1">
    <inkscape:grid
       type="xygrid"
       id="grid2991"
       units="px"
       empspacing="5"
       visible="true"
       enabled="true"
       snapvisiblegridlinesonly="true"
       spacingx="1px"
       spacingy="1px"
       dotted="false" />
  </sodipodi:namedview>
  <metadata
     id="metadata7">
    <rdf:RDF>
      <cc:Work
         rdf:about="">
        <dc:format>image/svg+xml</dc:format>
        <dc:type
           rdf:resource="http://purl.org/dc/dcmitype/StillImage" />
        <dc:title></dc:title>
      </cc:Work>
    </rdf:RDF>
  </metadata>
  <g
     inkscape:label="Layer 1"
     inkscape:groupmode="layer"
     id="layer1"
     transform="translate(0,-988.36218)">
    <g
       id="g5292">
      <path
         transform="matrix(-1,0,0,1,72,996.36218)"
         d="m 55,31.5 a 23,23.5 0 1 1 -46,0 23,23.5 0 1 1 46,0 z"
         sodipodi:ry="23.5"
         sodipodi:rx="23"
         sodipodi:cy="31.5"
         sodipodi:cx="32"
         id="path3012"
         style="fill:#000000"
         sodipodi:type="arc" />
      <path
         style="fill:#666666"
         transform="matrix(-0.96260279,0,0,0.98448009,74.883978,990.09026)"
         d="m 59.093925,38.367378 a 22.854702,22.854702 0 1 1 -45.709404,0 22.854702,22.854702 0 1 1 45.709404,0 z"
         sodipodi:ry="22.854702"
         sodipodi:rx="22.854702"
         sodipodi:cy="38.367378"
         sodipodi:cx="36.239223"
         id="path2987"
         sodipodi:type="arc" />
      <path
         transform="matrix(-1,0,0,1,72,996.36218)"
         d="m 51,31.5 a 19,19.5 0 1 1 -38,0 19,19.5 0 1 1 38,0 z"
         sodipodi:ry="19.5"
         sodipodi:rx="19"
         sodipodi:cy="31.5"
         sodipodi:cx="32"
         id="path2995"
         style="fill:#000000"
         sodipodi:type="arc" />
      <path
         transform="matrix(-1,0,0,1,72.5,995.36218)"
         d="m 38,18.5 a 5.5,2.5 0 1 1 -11,0 5.5,2.5 0 1 1 11,0 z"
         sodipodi:ry="2.5"
         sodipodi:rx="5.5"
         sodipodi:cy="18.5"
         sodipodi:cx="32.5"
         id="path3005"
         style="fill:#f2f2f2"
         sodipodi:type="arc" />
      <path
         transform="matrix(-1,0,0,1,72,996.36218)"
         d="m 35,47.5 a 2.5,1.5 0 1 1 -5,0 2.5,1.5 0 1 1 5,0 z"
         sodipodi:ry="1.5"
         sodipodi:rx="2.5"
         sodipodi:cy="47.5"
         sodipodi:cx="32.5"
         id="path3010"
         style="fill:#808080"
         sodipodi:type="arc" />
    </g>
    <g
       id="g5273"
       transform="matrix(0,-1,-1,0,1054.3622,1055.3622)">
      <path
         transform="translate(0,988.36218)"
         d="M 57,56.5 C 57,61.19442 53.19442,65 48.5,65 43.80558,65 40,61.19442 40,56.5 40,51.80558 43.80558,48 48.5,48 c 4.69442,0 8.5,3.80558 8.5,8.5 z"
         sodipodi:ry="8.5"
         sodipodi:rx="8.5"
         sodipodi:cy="56.5"
         sodipodi:cx="48.5"
         id="path3029"
         style="fill:#808080"
         sodipodi:type="arc" />
      <path
         transform="translate(0,988.36218)"
         inkscape:connector-curvature="0"
         id="path3023"
         d="m 5,54 0,5 35,2 0,-9 z"
         style="fill:#1a1a1a;fill-opacity:1;stroke:#000000;stroke-width:1px;stroke-linecap:butt;stroke-linejoin:miter;stroke-opacity:1" />
      <path
         transform="translate(0,988.36218)"
         inkscape:connector-curvature="0"
         id="path3027"
         d="m 40,52 2,-1 0,11 -2,-1 z"
         style="fill:#b3b3b3;fill-opacity:1;stroke:#727272;stroke-width:1px;stroke-linecap:butt;stroke-linejoin:round;stroke-opacity:1" />
    </g>
    <path
       sodipodi:type="arc"
       style="fill:#ff0000;fill-opacity:1;stroke:#727272;stroke-linejoin:round;stroke-opacity:1"
       id="path5278"
       sodipodi:cx="55.5"
       sodipodi:cy="11.5"
       sodipodi:rx="7.5"
       sodipodi:ry="7.5"
       d="m 63,11.5 a 7.5,7.5 0 1 1 -15,0 7.5,7.5 0 1 1 15,0 z"
       transform="matrix(-0.93333333,0,0,0.93333317,106.8,986.62885)" />
  </g>
</svg>
